<svg xmlns="http://www.w3.org/2000/svg" aria-hidden="true" style="position:absolute;width:0;height:0;overflow:hidden">
  <defs>
    <symbol id="icon-arrow_right" viewBox="0 0 32 32">
      <path d="M17.783 17.524H8.381v-3.048h9.402l-3.931-3.947 2.149-2.149 7.619 7.619-7.619 7.619-2.149-2.149 3.931-3.947z"/>
      <path d="M.762 16c0 8.416 6.822 15.238 15.238 15.238S31.238 24.416 31.238 16 24.416.762 16 .762.762 7.584.762 16zm3.048 0C3.81 9.267 9.268 3.81 16 3.81S28.19 9.268 28.19 16c0 6.733-5.458 12.19-12.19 12.19S3.81 22.732 3.81 16z"/>
    </symbol>
    <symbol id="icon-theme" viewBox="0 0 32 32">
      <path d="M16 29.333c7.352 0 13.333-5.981 13.333-13.333S23.352 2.667 16 2.667 2.667 8.648 2.667 16 8.648 29.333 16 29.333zm0-24c5.881 0 10.667 4.785 10.667 10.667S21.882 26.667 16 26.667c-5.881 0-10.667-4.785-10.667-10.667S10.118 5.333 16 5.333z"/>
      <path d="M25.333 16A9.334 9.334 0 0 0 16 6.667v18.667c5.153 0 9.333-4.179 9.333-9.333z"/>
    </symbol>
    <symbol id="icon-minus" viewBox="0 0 32 32">
      <path d="M0 16C0 7.168 7.168 0 16 0s16 7.168 16 16-7.168 16-16 16S0 24.832 0 16zm8 1.6h16v-3.2H8v3.2z"/>
    </symbol>
    <symbol id="icon-Accountants" viewBox="0 0 32 32">
      <path fill="#d6b1ff" d="M28 32H16a1.334 1.334 0 0 1-1.334-1.334v-2.667A1.334 1.334 0 0 1 16 26.665h12a1.334 1.334 0 0 1 1.334 1.334v2.667A1.334 1.334 0 0 1 28 32z" style="fill:var(--color1, #d6b1ff)"/>
      <path fill="#11b5e4" d="M28 0H4a1.335 1.335 0 0 0-1.334 1.334v2.667A1.335 1.335 0 0 0 4 5.335h24a1.335 1.335 0 0 0 1.334-1.334V1.334A1.334 1.334 0 0 0 28 0zM28 8H4a1.335 1.335 0 0 0-1.334 1.334v13.333A1.335 1.335 0 0 0 4 24.001h24a1.334 1.334 0 0 0 1.334-1.334V9.334A1.334 1.334 0 0 0 28 8z" style="fill:var(--color2, #11b5e4)"/>
    </symbol>
    <symbol id="icon-Enterpreneur" viewBox="0 0 32 32">
      <path fill="#d6b1ff" d="M24 13.333h8L28 8l-4 5.333zm0 5.334h8L28 24l-4-5.333z" style="fill:var(--color1, #d6b1ff)"/>
      <path fill="#02897a" d="M1.333 0h8v32h-8a1.334 1.334 0 0 1-1.334-1.334V1.333A1.335 1.335 0 0 1 1.333-.001zM12 0h8a1.335 1.335 0 0 1 1.334 1.334v29.333A1.334 1.334 0 0 1 20 32.001h-8v-32z" style="fill:var(--color3, #02897a)"/>
    </symbol>
    <symbol id="icon-mobile-screen" viewBox="0 0 32 32">
      <path d="M22.649 2.286H9.35c-1.377 0-2.494 1.152-2.494 2.571v22.286c0 1.42 1.117 2.571 2.494 2.571h13.299c1.377 0 2.494-1.152 2.494-2.571V4.857c0-1.42-1.117-2.571-2.494-2.571zm-4.156 23.951c0 .52-.374.905-.831.905h-3.371c-.41 0-.784-.386-.784-.857s.374-.857.831-.857h3.325c.457 0 .831.386.831.809zm3.325-3.38H10.182V5.714h11.636v17.143z"/>
    </symbol>
    <symbol id="icon-social-instagram" viewBox="0 0 32 32">
      <path stroke-linecap="round" stroke-linejoin="round" stroke-width="2.667" d="M22.667 2.667H9.334a6.667 6.667 0 0 0-6.667 6.667v13.333a6.667 6.667 0 0 0 6.667 6.667h13.333a6.667 6.667 0 0 0 6.667-6.667V9.334a6.667 6.667 0 0 0-6.667-6.667z"/>
      <path stroke-linecap="round" stroke-linejoin="round" stroke-width="2.667" d="M21.333 15.16a5.338 5.338 0 0 1-6.123 6.049 5.334 5.334 0 1 1 6.124-6.048zM23.333 8.667h.013"/>
    </symbol>
    <symbol id="icon-star" viewBox="0 0 32 32">
      <path d="m7.56 19.52-2.293 9.778c-.071.296-.05.606.061.89s.306.529.56.701a1.552 1.552 0 0 0 1.731.01l8.38-5.501 8.38 5.501a1.559 1.559 0 0 0 1.76-.038c.254-.182.446-.437.549-.73s.112-.61.026-.908l-2.815-9.699 6.981-6.186a1.492 1.492 0 0 0 .427-1.613c-.097-.281-.275-.527-.512-.709s-.524-.291-.824-.315l-8.774-.688L17.4 1.737c-.121-.266-.318-.493-.567-.652a1.552 1.552 0 0 0-2.237.652l-3.797 8.276-8.774.687c-.295.023-.577.129-.812.306s-.414.416-.514.69a1.49 1.49 0 0 0 .373 1.6l6.485 6.224zm4.391-6.556c.275-.021.539-.115.764-.271s.404-.369.517-.617l2.769-6.033 2.769 6.033c.113.248.291.461.517.617s.489.25.764.271l6.113.477-5.034 4.462a1.504 1.504 0 0 0-.451 1.543l1.928 6.645-5.75-3.775a1.544 1.544 0 0 0-1.706 0l-6.008 3.945 1.616-6.889a1.5 1.5 0 0 0-.425-1.425l-4.676-4.489 6.295-.494z"/>
    </symbol>
    <symbol id="icon-check-mark" viewBox="0 0 32 32">
      <path d="M30.645 5.156a1.487 1.487 0 0 0-2.133 0L10.437 23.581l-6.948-7.082c-.589-.601-1.544-.601-2.134 0s-.589 1.574 0 2.175l8.014 8.17c.589.6 1.545.6 2.134 0L30.645 7.331a1.56 1.56 0 0 0 0-2.175z"/>
    </symbol>
    <symbol id="icon-arrow" viewBox="0 0 32 32">
      <path d="M25.361 18.47 8.151 1.26a1.006 1.006 0 0 0-.756-.319c-.134 0-.286.034-.403.084a1.079 1.079 0 0 0-.672.992v25.277c0 .437.269.824.672.992.118.05.269.084.403.084.286 0 .555-.118.756-.319l5.244-5.244 3.21 7.597a1.08 1.08 0 0 0 1.412.571l2.975-1.261a1.08 1.08 0 0 0 .571-1.412l-3.378-8h6.42c.437 0 .824-.269.992-.672a1.038 1.038 0 0 0-.235-1.16z"/>
    </symbol>
    <symbol id="icon-design" viewBox="0 0 32 32">
      <path d="m17.619 13.079 2.079.968 3.095-.921v-2.159c0-3.667-3.095-6.603-6.794-6.603-3.683 0-6.794 2.921-6.794 6.556v9.841c0 .905-.73 1.619-1.619 1.619s-1.619-.714-1.619-1.619v-4.159H.761v4.222a6.809 6.809 0 0 0 6.81 6.81c3.73 0 6.809-3 6.809-6.714v-9.714c0-.889.73-1.619 1.619-1.619s1.619.73 1.619 1.619v1.873zm8.413 3.524v4.365c0 .889-.73 1.603-1.619 1.603s-1.619-.714-1.619-1.603v-4.286l-3.095.921-2.079-.968v4.254c0 3.73 3.064 6.746 6.81 6.746a6.809 6.809 0 0 0 6.81-6.81v-4.222h-5.206z"/>
    </symbol>
    <symbol id="icon-triangle" viewBox="0 0 32 32">
      <path d="M28.302 12.891c2.441 1.354 2.441 4.864 0 6.218L7.147 30.848c-2.37 1.315-5.281-.399-5.281-3.109V4.262c0-2.71 2.911-4.424 5.281-3.109l21.155 11.739z"/>
    </symbol>
    <symbol id="icon-plus" viewBox="0 0 32 32">
      <path d="M0 16C0 7.168 7.168 0 16 0s16 7.168 16 16-7.168 16-16 16S0 24.832 0 16zm17.6 1.6H24v-3.2h-6.4V8h-3.2v6.4H8v3.2h6.4V24h3.2v-6.4z"/>
    </symbol>
    <symbol id="icon-Universities" viewBox="0 0 32 32">
      <path fill="#d6b1ff" d="M6.667 1.333h-4a1.335 1.335 0 0 0-1.334 1.334v26.667a1.335 1.335 0 0 0 1.334 1.334h4V1.335z" style="fill:var(--color1, #d6b1ff)"/>
      <path fill="#f03e3d" d="M9.333 30.667h13.333V1.334H9.333v29.333zM16 25.333a1.334 1.334 0 1 1 0-2.667 1.334 1.334 0 0 1 0 2.667zm0-18.666a1.335 1.335 0 0 1 .943 2.277A1.334 1.334 0 1 1 16 6.667zm0 8a1.334 1.334 0 1 1 0 2.667 1.334 1.334 0 0 1 0-2.667zM29.333 1.333h-4v29.333h4a1.334 1.334 0 0 0 1.334-1.334V2.665a1.334 1.334 0 0 0-1.334-1.334z" style="fill:var(--color4, #f03e3d)"/>
    </symbol>
    <symbol id="icon-social-facebook" viewBox="0 0 32 32">
      <path stroke-linecap="round" stroke-linejoin="round" stroke-width="2.667" d="M23.333 2.667h-4a6.67 6.67 0 0 0-6.667 6.667v4h-4v5.333h4v10.667h5.333V18.667h4l1.333-5.333h-5.333v-4A1.334 1.334 0 0 1 19.333 8h4V2.667z"/>
    </symbol>
    <symbol id="icon-heart" viewBox="0 0 32 32">
      <path d="M16 29.714c.286 0 .571-.107.786-.322l11.125-10.714c.161-.161 4.089-3.75 4.089-8.036 0-5.232-3.196-8.357-8.536-8.357-3.125 0-6.053 2.464-7.464 3.857-1.411-1.393-4.339-3.857-7.464-3.857C3.197 2.285 0 5.41 0 10.642c0 4.286 3.929 7.875 4.071 8l11.143 10.75c.214.214.5.322.786.322z"/>
    </symbol>
    <symbol id="icon-clock" viewBox="0 0 32 32">
      <path d="M26.756 3.092h1.614a.531.531 0 0 0 .538-.538V1.478A.53.53 0 0 0 28.37.94H3.63a.53.53 0 0 0-.538.538v1.076a.53.53 0 0 0 .538.538h1.613c0 6.219 2.975 10.723 6.269 12.908-3.294 2.185-6.269 6.689-6.269 12.908H3.63a.53.53 0 0 0-.538.538v1.076c0 .302.235.538.538.538h24.74a.531.531 0 0 0 .538-.538v-1.076a.531.531 0 0 0-.538-.538h-1.614c0-6.219-2.975-10.723-6.269-12.908 3.294-2.185 6.269-6.689 6.269-12.908zm-2.151 0c0 2.454-.555 4.622-1.429 6.454H8.823c-.874-1.832-1.429-4-1.429-6.454h17.21zm-.958 20.437H8.353c1.244-3.244 3.479-5.546 5.714-6.454h3.866c2.235.908 4.471 3.21 5.714 6.454z"/>
    </symbol>
    <symbol id="icon-social-twitter" viewBox="0 0 32 32">
      <path stroke-linecap="round" stroke-linejoin="round" stroke-width="2.667" d="M30.667 4.051a14.542 14.542 0 0 1-4.187 2.04 5.975 5.975 0 0 0-6.637-1.661A5.979 5.979 0 0 0 16 10.091v1.333a14.211 14.211 0 0 1-12-6.04s-5.333 12 6.667 17.333a15.519 15.519 0 0 1-9.333 2.667c12 6.667 26.667 0 26.667-15.333a5.966 5.966 0 0 0-.107-1.107 10.288 10.288 0 0 0 2.773-4.893z"/>
    </symbol>
  </defs>
</svg>
